<?xml version="1.0" standalone="no"?>
<!DOCTYPE svg PUBLIC "-//W3C//DTD SVG 20010904//EN"
 "http://www.w3.org/TR/2001/REC-SVG-20010904/DTD/svg10.dtd">
<svg version="1.0" xmlns="http://www.w3.org/2000/svg"
 width="700.000000pt" height="700.000000pt" viewBox="0 0 700.000000 700.000000"
 preserveAspectRatio="xMidYMid meet">
<metadata>
Created by potrace 1.14, written by Peter Selinger 2001-2017
</metadata>
<g transform="translate(0.000000,700.000000) scale(0.100000,-0.100000)"
fill="#000000" stroke="none">
<path d="M1005 6989 c-250 -37 -477 -151 -660 -332 -184 -183 -297 -410 -335
-672 -14 -101 -14 -5058 1 -5161 16 -119 54 -239 113 -359 84 -170 202 -313
345 -418 l63 -47 2968 0 2968 0 63 47 c185 135 342 356 413 583 58 184 56 55
56 2780 0 1608 -4 2530 -10 2575 -75 527 -478 930 -1005 1005 -88 12 -4894 11
-4980 -1z m1387 -1959 c231 -49 438 -151 607 -299 68 -59 201 -209 201 -226 0
-6 -115 -74 -254 -151 -254 -141 -255 -142 -273 -121 -44 50 -175 144 -248
178 -112 52 -204 70 -355 70 -243 1 -417 -63 -563 -206 -155 -150 -228 -352
-214 -583 8 -117 27 -194 72 -287 85 -175 245 -301 451 -356 61 -17 110 -22
219 -22 260 -2 428 59 590 214 l70 67 240 -165 c131 -90 240 -165 242 -167 9
-9 -145 -170 -215 -225 -195 -154 -387 -235 -647 -276 -137 -22 -461 -16 -600
9 -278 52 -508 175 -692 370 -301 318 -420 737 -333 1167 111 546 563 946
1160 1029 113 16 432 4 542 -20z m3062 -4 c366 -95 683 -408 804 -793 55 -173
67 -256 66 -478 0 -218 -16 -326 -70 -477 -151 -422 -518 -743 -926 -808 -114
-19 -352 -8 -453 20 -150 41 -306 128 -428 240 l-57 52 -2 -584 -3 -583 -307
-3 -308 -2 0 1695 0 1695 308 -2 307 -3 3 -133 3 -133 57 52 c117 108 282 200
428 240 125 34 161 38 324 35 127 -3 173 -9 254 -30z"/>
<path d="M4918 4480 c-140 -24 -248 -81 -354 -185 -65 -64 -90 -97 -123 -165
-64 -133 -76 -190 -76 -370 0 -131 4 -167 23 -234 66 -230 223 -400 432 -468
46 -14 101 -22 186 -25 215 -9 353 44 499 191 88 89 148 192 182 316 25 91 25
348 0 440 -50 189 -185 359 -347 438 -131 64 -281 85 -422 62z"/>
</g>
</svg>
